<mxfile host="app.diagrams.net" agent="Mozilla/5.0 (X11; Linux x86_64) AppleWebKit/537.36 (KHTML, like Gecko) Chrome/130.0.0.0 Safari/537.36" version="24.8.3">
  <diagram name="Page-1" id="dnwevGq8JOj8--O8mrzH">
    <mxGraphModel dx="1348" dy="837" grid="1" gridSize="10" guides="1" tooltips="1" connect="1" arrows="1" fold="1" page="1" pageScale="1" pageWidth="850" pageHeight="1100" math="0" shadow="0">
      <root>
        <mxCell id="0" />
        <mxCell id="1" parent="0" />
        <mxCell id="8CyplNqZGmLOuTP_vOLu-1" style="edgeStyle=orthogonalEdgeStyle;rounded=0;orthogonalLoop=1;jettySize=auto;html=1;exitX=1;exitY=0.5;exitDx=0;exitDy=0;entryX=0;entryY=0.5;entryDx=0;entryDy=0;" edge="1" parent="1" source="8CyplNqZGmLOuTP_vOLu-5" target="8CyplNqZGmLOuTP_vOLu-8">
          <mxGeometry relative="1" as="geometry" />
        </mxCell>
        <mxCell id="8CyplNqZGmLOuTP_vOLu-2" style="edgeStyle=orthogonalEdgeStyle;rounded=0;orthogonalLoop=1;jettySize=auto;html=1;exitX=1;exitY=0.5;exitDx=0;exitDy=0;entryX=0;entryY=0.25;entryDx=0;entryDy=0;" edge="1" parent="1" source="8CyplNqZGmLOuTP_vOLu-5" target="8CyplNqZGmLOuTP_vOLu-7">
          <mxGeometry relative="1" as="geometry">
            <Array as="points">
              <mxPoint x="486" y="260" />
              <mxPoint x="486" y="379" />
            </Array>
          </mxGeometry>
        </mxCell>
        <mxCell id="8CyplNqZGmLOuTP_vOLu-3" style="edgeStyle=orthogonalEdgeStyle;rounded=0;orthogonalLoop=1;jettySize=auto;html=1;exitX=1;exitY=0.5;exitDx=0;exitDy=0;entryX=0;entryY=0.75;entryDx=0;entryDy=0;" edge="1" parent="1" source="8CyplNqZGmLOuTP_vOLu-5" target="8CyplNqZGmLOuTP_vOLu-9">
          <mxGeometry relative="1" as="geometry">
            <Array as="points">
              <mxPoint x="485" y="260" />
              <mxPoint x="485" y="140" />
            </Array>
          </mxGeometry>
        </mxCell>
        <mxCell id="8CyplNqZGmLOuTP_vOLu-4" value="2. Who Can Perform Service?" style="edgeLabel;html=1;align=center;verticalAlign=middle;resizable=0;points=[];" vertex="1" connectable="0" parent="8CyplNqZGmLOuTP_vOLu-3">
          <mxGeometry x="-0.817" y="1" relative="1" as="geometry">
            <mxPoint x="56" y="-12" as="offset" />
          </mxGeometry>
        </mxCell>
        <mxCell id="8CyplNqZGmLOuTP_vOLu-5" value="&lt;b&gt;Requestor&lt;/b&gt;" style="rounded=1;whiteSpace=wrap;html=1;fillColor=#d5e8d4;strokeColor=#82b366;" vertex="1" parent="1">
          <mxGeometry x="177" y="200" width="140" height="120" as="geometry" />
        </mxCell>
        <mxCell id="8CyplNqZGmLOuTP_vOLu-6" value="3. Claim" style="edgeStyle=orthogonalEdgeStyle;rounded=0;orthogonalLoop=1;jettySize=auto;html=1;exitX=0;exitY=0.5;exitDx=0;exitDy=0;entryX=0.75;entryY=1;entryDx=0;entryDy=0;" edge="1" parent="1" source="8CyplNqZGmLOuTP_vOLu-7" target="8CyplNqZGmLOuTP_vOLu-5">
          <mxGeometry x="-0.1988" y="-14" relative="1" as="geometry">
            <mxPoint as="offset" />
          </mxGeometry>
        </mxCell>
        <mxCell id="8CyplNqZGmLOuTP_vOLu-7" value="&lt;b&gt;Potential Performer&lt;/b&gt;" style="rounded=1;whiteSpace=wrap;html=1;fillColor=#b1ddf0;strokeColor=#10739e;" vertex="1" parent="1">
          <mxGeometry x="520" y="349" width="140" height="120" as="geometry" />
        </mxCell>
        <mxCell id="8CyplNqZGmLOuTP_vOLu-8" value="&lt;b&gt;Potential Performer&lt;/b&gt;" style="rounded=1;whiteSpace=wrap;html=1;fillColor=#b1ddf0;strokeColor=#10739e;" vertex="1" parent="1">
          <mxGeometry x="583" y="200" width="140" height="120" as="geometry" />
        </mxCell>
        <mxCell id="8CyplNqZGmLOuTP_vOLu-9" value="&lt;b&gt;Potential Performer&lt;/b&gt;" style="rounded=1;whiteSpace=wrap;html=1;fillColor=#b1ddf0;strokeColor=#10739e;" vertex="1" parent="1">
          <mxGeometry x="511" y="50" width="140" height="120" as="geometry" />
        </mxCell>
        <mxCell id="8CyplNqZGmLOuTP_vOLu-10" value="1. Propose service" style="edgeStyle=orthogonalEdgeStyle;rounded=0;orthogonalLoop=1;jettySize=auto;html=1;exitX=0;exitY=0.25;exitDx=0;exitDy=0;entryX=0;entryY=0.5;entryDx=0;entryDy=0;" edge="1" parent="1" source="8CyplNqZGmLOuTP_vOLu-5" target="8CyplNqZGmLOuTP_vOLu-5">
          <mxGeometry x="-0.0162" y="-18" relative="1" as="geometry">
            <Array as="points">
              <mxPoint x="128" y="230" />
              <mxPoint x="128" y="260" />
            </Array>
            <mxPoint as="offset" />
          </mxGeometry>
        </mxCell>
      </root>
    </mxGraphModel>
  </diagram>
</mxfile>
